<svg width="395" height="88" viewBox="0 0 395 88" fill="none" xmlns="http://www.w3.org/2000/svg">
<path d="M14.84 36.44C6.96 36.44 1.6 30.72 1.6 22.36V21.6C1.6 13.36 7.08 7.56 14.76 7.56H15.04C19.48 7.56 23.52 9.8 25.76 13.56L21.76 16.4C20.36 13.84 18.12 12.28 15.16 12.28H14.8C10.2 12.28 7.04 15.96 7.04 21.6V22.4C7.04 28.04 10.2 31.72 14.88 31.72H15.28C18.24 31.72 20.52 30.08 21.92 27.6L25.8 30.48C23.6 34.24 19.68 36.44 15.16 36.44H14.84ZM28.7997 36V8H38.5197C44.0797 8 47.8397 10.68 47.8397 14.88V15.36C47.8397 17.76 46.7997 19.68 44.4797 21.08C47.5597 22.4 49.2397 24.8 49.2397 27.88V28.36C49.2397 33.04 45.4797 36 39.6797 36H28.7997ZM33.8397 19.76H38.4397C41.0797 19.76 42.7597 18.4 42.7597 16.24V15.84C42.7597 13.8 41.1997 12.52 38.5197 12.52H33.8397V19.76ZM33.8397 31.48H39.3997C42.2397 31.48 44.0397 30.12 44.0397 27.84V27.44C44.0397 25.12 42.1997 23.72 39.3597 23.72H33.8397V31.48ZM57.7884 36V12.64H50.5484V8H70.2284V12.64H62.9884V36H57.7884Z" fill="#20477D"/>
<path d="M312.869 82V70.296H308.781V67.44H320.429V70.296H316.341V82H312.869ZM325.924 82.28C323.068 82.28 321.08 80.572 321.08 77.968V77.716C321.08 74.58 323.74 73.012 329.312 73.012H330.46V72.368C330.46 70.912 329.536 70.016 327.744 70.016H327.604C326.176 70.016 324.608 70.492 323.208 71.472L321.78 69.008C323.544 67.86 325.672 67.132 327.828 67.132H328.08C331.608 67.132 333.764 69.12 333.764 72.424V79.004C333.764 80.012 334.016 81.048 334.268 82H330.964C330.824 81.58 330.684 80.908 330.6 80.32C329.368 81.58 327.716 82.28 325.924 82.28ZM326.652 79.48C328.136 79.48 329.508 78.808 330.46 77.688V75.252H329.62C326.036 75.252 324.44 75.98 324.44 77.52V77.66C324.44 78.752 325.336 79.48 326.652 79.48ZM345.111 65.48C343.907 65.48 343.067 64.696 343.067 63.604C343.067 62.484 343.935 61.7 345.111 61.7C346.343 61.7 347.239 62.484 347.239 63.604C347.239 64.696 346.371 65.48 345.111 65.48ZM343.375 82V67.44H346.847V82H343.375ZM349.918 82V67.44H353.39V72.984H359.438V67.44H362.91V82H359.438V75.784H353.39V82H349.918ZM365.976 82V67.44H369.42V79.256H373.816V67.44H377.232V79.256H381.656V67.44H385.1V82H365.976ZM389.923 65.48C388.719 65.48 387.879 64.696 387.879 63.604C387.879 62.484 388.747 61.7 389.923 61.7C391.155 61.7 392.051 62.484 392.051 63.604C392.051 64.696 391.183 65.48 389.923 65.48ZM388.187 82V67.44H391.659V82H388.187Z" fill="#20477D"/>
<path d="M60.3333 84.48C53.3333 84.48 49.2933 80.64 49.2933 73.84V56H54.5333V73.52C54.5333 77.52 56.7733 79.64 60.3333 79.64C63.8933 79.64 66.0533 77.52 66.0533 73.52V56H71.2933V73.84C71.2933 80.8 67.1733 84.48 60.3333 84.48ZM76.3821 84V56H85.8221C91.8621 56 95.8621 59.44 95.8621 65V65.52C95.8621 71.12 91.9021 74.64 85.8621 74.64H81.6221V84H76.3821ZM81.5021 70.32H85.3421C88.5821 70.32 90.6221 68.56 90.6221 65.6V65.08C90.6221 62.2 88.6221 60.6 85.4621 60.6H81.5021V70.32Z" fill="#FF9700"/>
<path d="M118.213 36L127.653 8H134.533L143.973 36H138.373L136.293 29.4H125.933L123.813 36H118.213ZM127.133 25.08H135.093L131.253 13.24H130.933L127.133 25.08ZM156.505 36.44C148.625 36.44 143.265 30.72 143.265 22.36V21.6C143.265 13.36 148.745 7.56 156.425 7.56H156.705C161.145 7.56 165.185 9.8 167.425 13.56L163.425 16.4C162.025 13.84 159.785 12.28 156.825 12.28H156.465C151.865 12.28 148.705 15.96 148.705 21.6V22.4C148.705 28.04 151.865 31.72 156.545 31.72H156.945C159.905 31.72 162.185 30.08 163.585 27.6L167.465 30.48C165.265 34.24 161.345 36.44 156.825 36.44H156.505ZM175.34 36V12.64H168.1V8H187.78V12.64H180.541V36H175.34Z" fill="#6A85A9"/>
<path d="M162.987 80V52H170.427L176.787 69.48H177.067L183.387 52H190.907V80H185.787V58.32H185.507L178.947 76.2H174.907L168.387 58.32H168.107V80H162.987ZM196.318 80V52H206.038C211.598 52 215.358 54.68 215.358 58.88V59.36C215.358 61.76 214.318 63.68 211.998 65.08C215.078 66.4 216.758 68.8 216.758 71.88V72.36C216.758 77.04 212.998 80 207.198 80H196.318ZM201.358 63.76H205.958C208.598 63.76 210.278 62.4 210.278 60.24V59.84C210.278 57.8 208.718 56.52 206.038 56.52H201.358V63.76ZM201.358 75.48H206.918C209.758 75.48 211.558 74.12 211.558 71.84V71.44C211.558 69.12 209.718 67.72 206.878 67.72H201.358V75.48ZM232.107 80.44C224.227 80.44 218.867 74.72 218.867 66.36V65.6C218.867 57.36 224.347 51.56 232.027 51.56H232.307C236.747 51.56 240.787 53.8 243.027 57.56L239.027 60.4C237.627 57.84 235.387 56.28 232.427 56.28H232.067C227.467 56.28 224.307 59.96 224.307 65.6V66.4C224.307 72.04 227.467 75.72 232.147 75.72H232.547C235.507 75.72 237.787 74.08 239.187 71.6L243.067 74.48C240.867 78.24 236.947 80.44 232.427 80.44H232.107ZM250.943 80V56.64H243.703V52H263.383V56.64H256.143V80H250.943Z" fill="#E68703"/>
</svg>
