<svg width="24" height="24" viewBox="0 0 24 24" fill="none" xmlns="http://www.w3.org/2000/svg">
<g clip-path="url(#clip0_190_404)">
<path d="M19.9749 4.9749C20.5271 4.9749 20.9749 5.42261 20.9749 5.9749C20.9749 6.52718 20.5271 6.9749 19.9749 6.9749H3.97485C3.42257 6.9749 2.97485 6.52718 2.97485 5.9749C2.97485 5.42261 3.42257 4.9749 3.97485 4.9749H19.9749Z" fill="#333333"/>
<path d="M19.9749 10.9749C20.5271 10.9749 20.9749 11.4226 20.9749 11.9749C20.9749 12.5272 20.5271 12.9749 19.9749 12.9749H3.97485C3.42257 12.9749 2.97485 12.5272 2.97485 11.9749C2.97485 11.4226 3.42257 10.9749 3.97485 10.9749H19.9749Z" fill="#333333"/>
<path d="M19.9749 16.9749C20.5271 16.9749 20.9749 17.4226 20.9749 17.9749C20.9749 18.5272 20.5271 18.9749 19.9749 18.9749H3.97485C3.42257 18.9749 2.97485 18.5272 2.97485 17.9749C2.97485 17.4226 3.42257 16.9749 3.97485 16.9749H19.9749Z" fill="#333333"/>
</g>
<defs>
<clipPath id="clip0_190_404">
<rect width="24" height="24" fill="white"/>
</clipPath>
</defs>
</svg>
