<svg width="20" height="21" viewBox="0 0 20 21" fill="none" xmlns="http://www.w3.org/2000/svg">
<path d="M7.58404 20.332V13.6821H5.52015V10.626H7.58404V9.30931C7.58404 5.90542 9.12404 4.32931 12.464 4.32931C13.0963 4.32931 14.1879 4.4532 14.6363 4.57709V7.34542C14.4001 7.32153 13.9879 7.30931 13.4801 7.30931C11.8401 7.30931 11.2079 7.92931 11.2079 9.54542V10.626H14.4763L13.9163 13.6815H11.2124V20.5537C16.1637 19.9539 20 15.738 20 10.626C20 5.1032 15.5228 0.625977 10 0.625977C4.47722 0.625977 0 5.1032 0 10.626C0 15.3158 3.22813 19.2513 7.58404 20.332Z" fill="black"/>
</svg>
