<svg width="24" height="25" viewBox="0 0 24 25" fill="none" xmlns="http://www.w3.org/2000/svg">
<path d="M12 4.8377C14.5365 4.8377 14.837 4.8472 15.8389 4.89298C16.4411 4.90025 17.0377 5.01097 17.6024 5.22029C18.0151 5.3726 18.3884 5.61548 18.6949 5.93107C19.0105 6.23754 19.2534 6.61086 19.4057 7.02357C19.615 7.58832 19.7257 8.18485 19.733 8.78711C19.7788 9.78893 19.7883 10.0895 19.7883 12.626C19.7883 15.1625 19.7788 15.463 19.733 16.4648C19.7257 17.0671 19.615 17.6636 19.4057 18.2284C19.2476 18.6382 19.0055 19.0103 18.6949 19.3209C18.3844 19.6315 18.0122 19.8736 17.6024 20.0317C17.0377 20.241 16.4411 20.3517 15.8389 20.359C14.837 20.4047 14.5365 20.4142 12 20.4142C9.4635 20.4142 9.16295 20.4047 8.16114 20.359C7.55859 20.3518 6.96176 20.2411 6.39673 20.0317C5.98433 19.8792 5.61132 19.6364 5.30509 19.3209C4.9895 19.0144 4.74662 18.6411 4.59432 18.2284C4.38499 17.6636 4.27427 17.0671 4.267 16.4648C4.22123 15.463 4.21173 15.1625 4.21173 12.626C4.21173 10.0895 4.22123 9.78893 4.267 8.78711C4.27427 8.18485 4.38499 7.58832 4.59432 7.02357C4.74662 6.61086 4.9895 6.23754 5.30509 5.93107C5.61156 5.61548 5.98488 5.3726 6.39759 5.22029C6.96235 5.01097 7.55888 4.90025 8.16114 4.89298C9.16295 4.8472 9.4635 4.8377 12 4.8377ZM12 3.12598C9.42032 3.12598 9.09645 3.1372 8.08341 3.18298C7.29535 3.1987 6.51567 3.34792 5.7775 3.62429C5.1433 3.86307 4.56886 4.23739 4.09427 4.72111C3.61096 5.19553 3.23695 5.76967 2.99832 6.40348C2.72224 7.1417 2.57331 7.92138 2.55786 8.70939C2.51036 9.72243 2.5 10.0463 2.5 12.626C2.5 15.2057 2.51123 15.5295 2.557 16.5426C2.57272 17.3306 2.72194 18.1103 2.99832 18.8485C3.2371 19.4827 3.61141 20.0571 4.09514 20.5317C4.56956 21.015 5.14369 21.389 5.7775 21.6277C6.51572 21.9037 7.2954 22.0527 8.08341 22.0681C9.09645 22.1156 9.42032 22.126 12 22.126C14.5797 22.126 14.9035 22.1147 15.9166 22.069C16.7046 22.0533 17.4843 21.904 18.2225 21.6277C18.8538 21.3836 19.4271 21.0103 19.9057 20.5317C20.3843 20.0531 20.7576 19.4798 21.0017 18.8485C21.2778 18.1103 21.4267 17.3306 21.4421 16.5426C21.4896 15.5295 21.5 15.2057 21.5 12.626C21.5 10.0463 21.4888 9.72243 21.443 8.70939C21.4273 7.92133 21.2781 7.14165 21.0017 6.40348C20.7629 5.76928 20.3886 5.19484 19.9049 4.72025C19.4304 4.23694 18.8563 3.86293 18.2225 3.62429C17.4843 3.34821 16.7046 3.19929 15.9166 3.18384C14.9035 3.13634 14.5797 3.12598 12 3.12598ZM12 7.74729C11.0351 7.74729 10.0918 8.03342 9.28955 8.5695C8.48725 9.10558 7.86194 9.86752 7.49269 10.759C7.12343 11.6504 7.02682 12.6314 7.21506 13.5778C7.40331 14.5241 7.86796 15.3934 8.55025 16.0757C9.23255 16.758 10.1018 17.2227 11.0482 17.4109C11.9946 17.5992 12.9755 17.5025 13.867 17.1333C14.7585 16.764 15.5204 16.1387 16.0565 15.3364C16.5926 14.5341 16.8787 13.5909 16.8787 12.626C16.8787 11.3321 16.3647 10.0912 15.4497 9.17623C14.5348 8.2613 13.2939 7.74729 12 7.74729ZM12 15.7929C11.3736 15.7929 10.7613 15.6072 10.2405 15.2592C9.71973 14.9112 9.31382 14.4166 9.07412 13.8379C8.83442 13.2592 8.7717 12.6225 8.8939 12.0081C9.0161 11.3938 9.31772 10.8295 9.76063 10.3866C10.2035 9.9437 10.7678 9.64207 11.3822 9.51987C11.9965 9.39768 12.6333 9.46039 13.2119 9.70009C13.7906 9.93979 14.2852 10.3457 14.6332 10.8665C14.9812 11.3873 15.167 11.9996 15.167 12.626C15.167 13.4659 14.8333 14.2714 14.2394 14.8654C13.6455 15.4593 12.8399 15.7929 12 15.7929ZM17.0713 6.4147C16.8458 6.4147 16.6254 6.48156 16.4379 6.60683C16.2505 6.73209 16.1043 6.91014 16.0181 7.11844C15.9318 7.32675 15.9092 7.55597 15.9532 7.77711C15.9972 7.99825 16.1057 8.20137 16.2652 8.36081C16.4246 8.52024 16.6277 8.62881 16.8489 8.6728C17.07 8.71679 17.2992 8.69421 17.5075 8.60793C17.7158 8.52164 17.8939 8.37553 18.0191 8.18805C18.1444 8.00058 18.2113 7.78017 18.2113 7.5547C18.2113 7.25236 18.0912 6.96239 17.8774 6.7486C17.6636 6.53481 17.3736 6.4147 17.0713 6.4147Z" fill="#111112"/>
</svg>
