<svg width="50" height="38" viewBox="0 0 50 38" fill="none" xmlns="http://www.w3.org/2000/svg">
<g filter="url(#filter0_d_2001_951)">
<path d="M44.612 12.5608L33.2029 1.14313C31.8522 -0.2076 29.6752 -0.2076 28.3246 1.14313L25.0035 4.46433L21.6824 1.14313C20.3317 -0.2076 18.1548 -0.2076 16.8041 1.14313L5.38703 12.5608C4.03635 13.9114 4.03635 16.0886 5.38703 17.4392L16.8041 28.8568C18.1548 30.2076 20.3317 30.2076 21.6824 28.8568L25.0035 25.5357L28.3246 28.8568C29.6752 30.2076 31.8522 30.2076 33.2029 28.8568L44.62 17.4392C45.9627 16.0886 45.9627 13.9036 44.612 12.5608ZM39.3047 17.2168L32.6626 10.5744C31.0179 8.92972 29.5878 8.72307 28.3723 9.94672C27.5062 10.8127 27.1725 11.7344 27.3791 12.7117C27.5857 13.689 28.3484 14.8411 29.6673 16.16L35.0144 21.5074L31.9078 24.614L31.8919 24.5981L31.8839 24.6061L28.3086 21.1101C28.1101 20.9114 27.1725 19.9659 26.3542 19.0919L24.8446 17.5902L24.781 17.6538C25.2022 19.4574 24.6619 21.1101 23.1523 22.6197C21.8175 23.9546 20.443 24.614 19.0288 24.5822C17.6146 24.5584 16.24 23.8672 14.8973 22.5244L7.48453 15.1113L10.5911 12.0045L17.2331 18.647C18.8779 20.2917 20.308 20.4982 21.5236 19.2747C22.3896 18.4086 22.7233 17.4869 22.5167 16.5096C22.3101 15.5323 21.5474 14.3803 20.2285 13.0613L14.8814 7.70607L14.8973 7.69014L14.8814 7.67431L16.1765 6.41094L17.98 4.60737L19.5531 6.17264L22.3975 8.90583C22.5961 9.10451 23.0013 9.53353 23.5972 10.2009L25.0432 11.6391L25.1068 11.5755C24.6857 9.77193 25.226 8.11926 26.7355 6.60962C28.0703 5.27479 29.4448 4.61533 30.8591 4.64708C32.2733 4.67087 33.6478 5.36218 34.9905 6.70498L42.4033 14.1181L39.3047 17.2168Z" fill="#123F66"/>
</g>
<defs>
<filter id="filter0_d_2001_951" x="0.548332" y="0.130081" width="48.9034" height="37.3912" filterUnits="userSpaceOnUse" color-interpolation-filters="sRGB">
<feFlood flood-opacity="0" result="BackgroundImageFix"/>
<feColorMatrix in="SourceAlpha" type="matrix" values="0 0 0 0 0 0 0 0 0 0 0 0 0 0 0 0 0 0 127 0" result="hardAlpha"/>
<feOffset dy="3.82569"/>
<feGaussianBlur stdDeviation="1.91285"/>
<feComposite in2="hardAlpha" operator="out"/>
<feColorMatrix type="matrix" values="0 0 0 0 0.882353 0 0 0 0 0.917647 0 0 0 0 0.937255 0 0 0 0.25 0"/>
<feBlend mode="normal" in2="BackgroundImageFix" result="effect1_dropShadow_2001_951"/>
<feBlend mode="normal" in="SourceGraphic" in2="effect1_dropShadow_2001_951" result="shape"/>
</filter>
</defs>
</svg>
