<svg width="557" height="86" viewBox="0 0 557 86" fill="none" xmlns="http://www.w3.org/2000/svg">
<path d="M5.72205e-05 25.373C5.72205e-05 25.373 7.56343 24.0801 20.9448 24.0801C35.3734 24.0801 41.8895 25.373 41.8895 25.373C41.8895 25.373 35.3734 37.0089 20.9448 37.0089C6.5162 37.0089 5.72205e-05 25.373 5.72205e-05 25.373Z" fill="white"/>
<path d="M99.8109 26.373C99.8109 26.373 92.2475 25.0802 78.8661 25.0802C64.4375 25.0802 57.9214 26.373 57.9214 26.373C57.9214 26.373 64.4375 38.009 78.8661 38.009C93.2947 38.009 99.8109 26.373 99.8109 26.373Z" fill="white"/>
<path d="M108.861 20.9772C91.2778 16.8399 91.0192 8.04833 84.0376 3.9111C64.5877 -7.6148 55.508 15.978 55.3356 20.9772C52.836 25.7178 49.3366 38.819 55.3356 53.2993C62.8343 71.3997 70.333 69.8482 62.8343 80.1913C56.8353 88.4657 47.923 83.639 44.2168 80.1913C41.4586 80.8808 36.7698 79.3638 40.0795 67.7796C43.3893 56.1953 44.2168 31.7512 44.2168 20.9772C30.7708 -2.29475 20.6863 20.3566 3.10303 20.9772" stroke="#111112" stroke-width="1.55146"/>
<path d="M84.9769 36.4918C84.9769 37.7847 82.5521 37.8839 79.1247 37.8839C75.6973 37.8839 72.9188 37.7847 72.9188 36.4918C72.9188 33.0644 75.6973 30.2859 79.1247 30.2859C82.5521 30.2859 84.9769 33.0644 84.9769 36.4918Z" fill="#111112"/>
<path d="M26.9771 35.3839C26.9771 36.6767 24.6308 37.2675 21.2034 37.2675C17.776 37.2675 14.9771 36.6767 14.9771 35.3839C14.9771 31.9565 17.776 30.2859 21.2034 30.2859C24.6308 30.2859 26.9771 31.9565 26.9771 35.3839Z" fill="#111112"/>
<path d="M282.861 10.3838C282.861 10.3838 276.361 20.3838 264.861 20.3838C252.461 20.3838 246.861 10.3838 246.861 10.3838C246.861 10.3838 252.461 0.383759 264.861 0.383759C277.261 0.383759 282.861 10.3838 282.861 10.3838Z" fill="white"/>
<path d="M332.639 10.3838C332.639 10.3838 326.139 20.3838 314.639 20.3838C302.239 20.3838 296.639 10.3838 296.639 10.3838C296.639 10.3838 302.239 0.383759 314.639 0.383759C327.039 0.383759 332.639 10.3838 332.639 10.3838Z" fill="white"/>
<ellipse cx="310.31" cy="14.717" rx="5.33333" ry="5.33333" fill="#111112"/>
<ellipse cx="262.31" cy="14.717" rx="5.33333" ry="5.33333" fill="#111112"/>
<path d="M293.972 4.60599C290.12 15.7912 286.639 40.7393 303.528 51.0504C320.417 61.3615 302.12 60.5319 290.861 58.8282V74.8282C291.898 72.6801 293.972 70.5615 293.972 79.2727C293.972 87.9838 291.898 85.1245 290.861 82.606" stroke="#111112" stroke-width="1.33333"/>
<path d="M506.639 40.1512C506.639 40.1512 500.139 50.1512 488.639 50.1512C476.239 50.1512 470.639 40.1512 470.639 40.1512C470.639 40.1512 476.239 30.1512 488.639 30.1512C501.039 30.1512 506.639 40.1512 506.639 40.1512Z" fill="white"/>
<path d="M556.417 40.1512C556.417 40.1512 549.917 50.1512 538.417 50.1512C526.017 50.1512 520.417 40.1512 520.417 40.1512C520.417 40.1512 526.017 30.1512 538.417 30.1512C550.817 30.1512 556.417 40.1512 556.417 40.1512Z" fill="white"/>
<circle cx="489.31" cy="44.717" r="5.33333" fill="#111112"/>
<circle cx="538.31" cy="44.717" r="5.33333" fill="#111112"/>
<path d="M476.195 18.1513C484.713 16.0772 502.861 14.2846 507.306 23.7068C511.75 33.129 509.158 50.2994 507.306 57.7068L504.639 69.0402H513.972" stroke="#111112" stroke-width="1.33333"/>
</svg>
