<svg width="16" height="17" viewBox="0 0 16 17" fill="none" xmlns="http://www.w3.org/2000/svg">
<path fill-rule="evenodd" clip-rule="evenodd" d="M8.03166 0.625977C8.58394 0.626701 9.03107 1.075 9.03035 1.62729L9.02249 7.62598H15C15.5523 7.62598 16 8.07369 16 8.62598C16 9.17826 15.5523 9.62598 15 9.62598H9.01987L9.012 15.6273C9.01128 16.1796 8.56297 16.6267 8.01069 16.626C7.4584 16.6253 7.01128 16.177 7.012 15.6247L7.01986 9.62598H1C0.447715 9.62598 0 9.17826 0 8.62598C0 8.07369 0.447715 7.62598 1 7.62598H7.02248L7.03035 1.62467C7.03107 1.07238 7.47938 0.625254 8.03166 0.625977Z" fill="#36373A"/>
</svg>
