<svg width="118" height="45" viewBox="0 0 118 45" fill="none" xmlns="http://www.w3.org/2000/svg">
<g clip-path="url(#clip0_121_2727)">
<g filter="url(#filter0_d_121_2727)">
<path d="M41.0754 13.0567L29.6662 1.63902C28.3156 0.288295 26.1386 0.288295 24.7879 1.63902L21.4669 4.96022L18.1458 1.63902C16.7951 0.288295 14.6182 0.288295 13.2675 1.63902L1.8504 13.0567C0.499725 14.4073 0.499725 16.5845 1.8504 17.9351L13.2675 29.3527C14.6182 30.7035 16.7951 30.7035 18.1458 29.3527L21.4669 26.0316L24.7879 29.3527C26.1386 30.7035 28.3156 30.7035 29.6662 29.3527L41.0834 17.9351C42.4261 16.5845 42.4261 14.3995 41.0754 13.0567ZM35.7681 17.7127L29.1259 11.0703C27.4813 9.42561 26.0512 9.21897 24.8356 10.4426C23.9696 11.3086 23.6359 12.2303 23.8425 13.2076C24.0491 14.1848 24.8117 15.337 26.1306 16.6559L31.4778 22.0033L28.3712 25.1099L28.3553 25.094L28.3473 25.102L24.772 21.606C24.5734 21.4073 23.6359 20.4618 22.8175 19.5878L21.308 18.0861L21.2444 18.1496C21.6655 19.9533 21.1252 21.606 19.6157 23.1156C18.2809 24.4505 16.9064 25.1099 15.4921 25.0781C14.078 25.0543 12.7034 24.3631 11.3607 23.0203L3.94791 15.6072L7.05446 12.5004L13.6965 19.1429C15.3412 20.7876 16.7713 20.9941 17.9869 19.7706C18.8529 18.9045 19.1867 17.9828 18.98 17.0055C18.7735 16.0282 18.0108 14.8762 16.6919 13.5572L11.3448 8.20196L11.3607 8.18603L11.3448 8.17021L12.6399 6.90684L14.4434 5.10326L16.0165 6.66854L18.8609 9.40172C19.0595 9.6004 19.4647 10.0294 20.0606 10.6968L21.5066 12.135L21.5702 12.0714C21.149 10.2678 21.6893 8.61515 23.1989 7.10552C24.5337 5.77068 25.9082 5.11122 27.3224 5.14298C28.7366 5.16677 30.1112 5.85808 31.4539 7.20088L38.8667 14.614L35.7681 17.7127Z" fill="#123F66"/>
</g>
<path d="M53.6016 17.8233V15.5888L60.4853 6.4873H64.0315L57.2938 15.5888L55.6459 15.1174H67.1395V17.8233H53.6016ZM61.4657 20.8366V17.8233L61.57 15.1174V12.432H64.7615V20.8366H61.4657Z" fill="#123F66"/>
<path d="M75.6597 9.64373C76.5497 9.64373 77.3424 9.82141 78.0377 10.1767C78.7469 10.5184 79.3032 11.0514 79.7065 11.7757C80.1098 12.4863 80.3115 13.4019 80.3115 14.5225V20.8362H77.0573V15.0145C77.0573 14.1262 76.8557 13.4702 76.4524 13.0465C76.063 12.6229 75.5067 12.4112 74.7836 12.4112C74.2691 12.4112 73.8032 12.5204 73.386 12.7391C72.9827 12.9441 72.6628 13.2653 72.4265 13.7025C72.204 14.1398 72.0927 14.7002 72.0927 15.3834V20.8362H68.8386V5.62598H72.0927V12.8621L71.3626 11.9396C71.766 11.2017 72.343 10.6345 73.094 10.2382C73.845 9.84193 74.7001 9.64373 75.6597 9.64373Z" fill="#123F66"/>
<path d="M88.9121 21C87.6327 21 86.5063 20.754 85.5328 20.262C84.5733 19.7701 83.8293 19.1004 83.3009 18.2531C82.7724 17.3922 82.5082 16.415 82.5082 15.3218C82.5082 14.2149 82.7655 13.2378 83.28 12.3905C83.8085 11.5294 84.5246 10.8598 85.4285 10.3816C86.3324 9.88953 87.3546 9.64355 88.4949 9.64355C89.5935 9.64355 90.5809 9.87591 91.457 10.3405C92.347 10.7915 93.0491 11.4475 93.5633 12.3084C94.0785 13.1557 94.3356 14.1739 94.3356 15.3628C94.3356 15.4858 94.3289 15.6293 94.3145 15.7933C94.3011 15.9436 94.2867 16.0871 94.2732 16.2237H85.1573V14.3584H92.5625L91.311 14.9118C91.311 14.3378 91.1928 13.8391 90.9563 13.4154C90.7199 12.9918 90.3932 12.6638 89.9759 12.4314C89.5587 12.1854 89.072 12.0625 88.5157 12.0625C87.9595 12.0625 87.4658 12.1854 87.0348 12.4314C86.6175 12.6638 86.2907 12.9986 86.0543 13.4359C85.8179 13.8595 85.6997 14.3652 85.6997 14.9528V15.4447C85.6997 16.0461 85.8318 16.5791 86.096 17.0437C86.3741 17.4947 86.7565 17.8431 87.2433 18.0892C87.7439 18.3214 88.3281 18.4376 88.9956 18.4376C89.5935 18.4376 90.115 18.3488 90.56 18.1711C91.0189 17.9934 91.4361 17.727 91.8116 17.3717L93.5432 19.2166C93.028 19.7906 92.3817 20.2347 91.603 20.5491C90.8242 20.8496 89.9273 21 88.9121 21Z" fill="#123F66"/>
<path d="M96.5018 20.8362V5.62598H99.7559V20.8362H96.5018Z" fill="#123F66"/>
<path d="M109.41 21C108.464 21 107.637 20.795 106.927 20.385C106.218 19.9751 105.662 19.3532 105.259 18.5197C104.869 17.6724 104.675 16.6064 104.675 15.3218C104.675 14.0236 104.863 12.9576 105.238 12.124C105.613 11.2904 106.156 10.6685 106.865 10.2586C107.574 9.84857 108.423 9.64355 109.41 9.64355C110.466 9.64355 111.412 9.88272 112.247 10.3611C113.095 10.8257 113.762 11.4817 114.249 12.329C114.75 13.1763 115 14.1739 115 15.3218C115 16.4834 114.75 17.4879 114.249 18.3352C113.762 19.1825 113.095 19.8384 112.247 20.303C111.412 20.7677 110.466 21 109.41 21ZM102.776 24.8128V9.8076H105.884V12.0625L105.822 15.3423L106.03 18.6016V24.8128H102.776ZM108.847 18.3761C109.389 18.3761 109.868 18.2531 110.286 18.0072C110.717 17.7612 111.057 17.4127 111.307 16.9617C111.572 16.4971 111.705 15.9504 111.705 15.3218C111.705 14.6795 111.572 14.1328 111.307 13.6818C111.057 13.2309 110.717 12.8824 110.286 12.6364C109.868 12.3905 109.389 12.2675 108.847 12.2675C108.304 12.2675 107.817 12.3905 107.387 12.6364C106.955 12.8824 106.614 13.2309 106.364 13.6818C106.114 14.1328 105.989 14.6795 105.989 15.3218C105.989 15.9504 106.114 16.4971 106.364 16.9617C106.614 17.4127 106.955 17.7612 107.387 18.0072C107.817 18.2531 108.304 18.3761 108.847 18.3761Z" fill="#123F66"/>
</g>
<defs>
<filter id="filter0_d_121_2727" x="-2.9883" y="0.625977" width="48.9034" height="37.3911" filterUnits="userSpaceOnUse" color-interpolation-filters="sRGB">
<feFlood flood-opacity="0" result="BackgroundImageFix"/>
<feColorMatrix in="SourceAlpha" type="matrix" values="0 0 0 0 0 0 0 0 0 0 0 0 0 0 0 0 0 0 127 0" result="hardAlpha"/>
<feOffset dy="3.82569"/>
<feGaussianBlur stdDeviation="1.91285"/>
<feComposite in2="hardAlpha" operator="out"/>
<feColorMatrix type="matrix" values="0 0 0 0 0.882353 0 0 0 0 0.917647 0 0 0 0 0.937255 0 0 0 0.25 0"/>
<feBlend mode="normal" in2="BackgroundImageFix" result="effect1_dropShadow_121_2727"/>
<feBlend mode="normal" in="SourceGraphic" in2="effect1_dropShadow_121_2727" result="shape"/>
</filter>
<clipPath id="clip0_121_2727">
<rect width="118" height="44.1301" fill="white" transform="translate(0 0.625977)"/>
</clipPath>
</defs>
</svg>
