<svg width="20" height="17" viewBox="0 0 20 17" fill="none" xmlns="http://www.w3.org/2000/svg">
<path d="M1.80603 7.53518C6.90725 5.32035 10.308 3.86006 12.0084 3.15458C16.8691 1.14003 17.8778 0.790153 18.5366 0.778436C18.6815 0.775983 19.0041 0.811679 19.2146 0.981443C19.3896 1.1245 19.4388 1.31797 19.4634 1.45367C19.4853 1.58937 19.5154 1.89865 19.4908 2.14008C19.2283 4.89772 18.0884 11.5896 17.5088 14.6783C17.2655 15.9852 16.7816 16.4234 16.3141 16.4662C15.2972 16.5594 14.5262 15.797 13.542 15.1541C12.0029 14.1478 11.1336 13.5216 9.63826 12.5398C7.91052 11.4051 9.03133 10.7814 10.0155 9.76227C10.2725 9.49549 14.7504 5.43671 14.8351 5.06857C14.846 5.02252 14.857 4.85085 14.7531 4.76038C14.652 4.66964 14.5015 4.7007 14.3922 4.72523C14.2364 4.76011 11.7787 6.3809 7.01101 9.58732C6.3139 10.0653 5.68241 10.2983 5.11379 10.286C4.49049 10.2726 3.28771 9.93394 2.39376 9.64455C1.30025 9.28949 0.428135 9.10174 0.504681 8.49871C0.542954 8.1848 0.977693 7.86353 1.80603 7.53518Z" fill="#111112"/>
</svg>
