<svg width="374" height="377" viewBox="0 0 374 377" fill="none" xmlns="http://www.w3.org/2000/svg">
<path fill-rule="evenodd" clip-rule="evenodd" d="M107.143 6.03313C73.6184 22.8059 54.1036 67.8928 67.4154 103.482C68.5839 106.532 68.9903 108.261 68.5839 108.362C68.2791 108.413 65.6373 108.769 62.6907 109.125C-24.0465 119.044 -13.2996 219.52 49.3805 253.24C51.2332 254.233 51.2414 255.7 49.5788 256.987C48.7699 257.613 47.8125 258.336 46.7895 259.086C9.33746 286.717 -9.5006 332.443 37.391 363.804C89.8088 398.988 176.927 354.333 198.588 298.889C199.655 296.144 200.671 293.704 200.874 293.5C201.077 293.246 203.719 294.517 206.767 296.245C293.128 346.155 415.065 244.174 359.328 152.08C346.452 130.805 326.337 114.352 301.311 110.65C298.771 110.243 296.688 109.684 296.535 109.328C296.434 109.023 297.043 104.804 297.907 100.026C304.552 63.5008 298.131 18.64 251.169 18.64C234.099 18.64 218.858 25.0451 202.5 39.177C198.191 42.8539 193.973 42.44 190.606 37.8859C190.523 37.7747 190.441 37.6628 190.358 37.5503C169.151 8.92789 142.587 -10.3972 107.143 6.03313Z" fill="#FFB64E"/>
</svg>
