<svg width="426" height="377" viewBox="0 0 426 377" fill="none" xmlns="http://www.w3.org/2000/svg">
<path fill-rule="evenodd" clip-rule="evenodd" d="M20.0168 90.8353C20.128 106.064 31.9156 116.024 57.159 122.249L58.5957 122.595C61.5761 123.314 61.6639 127.521 58.716 128.363C35.9126 134.751 0.344538 150.811 0 179.053C0 195.949 12.7884 209.511 38.2542 219.738C40.7007 220.738 40.5895 220.96 34.3621 225.185C18.9047 235.411 8.22913 249.862 6.67227 262.979C-7.36829 372.921 195.997 383.824 259.106 373.029C315.113 363.611 425.357 336.563 425.357 264.091C425.246 236.301 409.344 212.512 380.542 197.394C376.839 195.406 376.117 190.402 379.106 187.448L382.877 183.721C406.089 160.929 404.798 129.826 385.435 104.019C383.179 101.07 384.152 96.7985 387.462 95.1179L388.104 94.7923C404.344 86.3171 416.55 69.0458 408.343 50.7724C373.642 -24.6728 20.0168 -19.802 20.0168 90.8353Z" fill="#FF9700"/>
</svg>
