<svg width="387" height="377" viewBox="0 0 387 377" fill="none" xmlns="http://www.w3.org/2000/svg">
<path fill-rule="evenodd" clip-rule="evenodd" d="M68.783 11.7832C54.0096 19.2781 44.6461 26.9812 32.8898 41.2423C-5.73929 88.635 -14.9497 152.913 30.393 198.635C37.2053 205.513 38.371 216.037 34.5053 224.912C31.526 231.752 29.1308 238.831 27.3757 246.207C13.9266 304.808 44.6111 363.807 105.196 374.557C159.023 383.828 205.293 355.609 221.199 303.564C221.928 301.274 222.76 299.088 223.176 298.671C223.592 298.255 227.338 299.712 231.603 302.002C286.265 331.171 367.663 312.521 384.123 247.873C403.264 172.546 301.281 81.6003 231.083 119.626C228.497 121.042 225.313 119.316 225.087 116.377L224.841 113.173C219.136 37.0753 147.605 -27.2944 68.783 11.7832Z" fill="#FFB64E"/>
</svg>
