<svg width="617" height="490" viewBox="0 0 617 490" fill="none" xmlns="http://www.w3.org/2000/svg">
<path d="M107.778 23.5144C-84.2221 93.7172 27.4358 295.092 84.3462 406.57C141.257 518.047 496.835 517.951 526.211 397.266C562.089 249.868 657.806 133.73 596.278 61.0144C541.278 -3.98572 221.278 -17.9857 107.778 23.5144Z" fill="#FEEACC"/>
<path d="M165.51 162.014C189.33 186.656 243.869 221.153 271.467 162.014" stroke="#111112" stroke-width="8"/>
<path d="M341.695 163.246C357.711 190.352 394.673 218.689 447.652 163.246" stroke="#111112" stroke-width="8"/>
<line x1="448.194" y1="194.195" x2="436.825" y2="175.154" stroke="#111112" stroke-width="8"/>
<line x1="278.17" y1="191.731" x2="266.801" y2="172.69" stroke="#111112" stroke-width="8"/>
<line y1="-4" x2="22.1771" y2="-4" transform="matrix(0.512643 -0.858602 -0.858602 -0.512643 334.302 194.609)" stroke="#111112" stroke-width="8"/>
<line y1="-4" x2="22.1771" y2="-4" transform="matrix(0.512643 -0.858602 -0.858602 -0.512643 164.278 192.144)" stroke="#111112" stroke-width="8"/>
<line x1="430.945" y1="206.516" x2="419.576" y2="187.474" stroke="#111112" stroke-width="8"/>
<line x1="260.921" y1="204.052" x2="249.552" y2="185.01" stroke="#111112" stroke-width="8"/>
<line y1="-4" x2="22.1771" y2="-4" transform="matrix(0.512643 -0.858602 -0.858602 -0.512643 351.551 206.929)" stroke="#111112" stroke-width="8"/>
<line y1="-4" x2="22.1771" y2="-4" transform="matrix(0.512643 -0.858602 -0.858602 -0.512643 181.527 204.465)" stroke="#111112" stroke-width="8"/>
<line x1="406.25" y1="215.345" x2="401.842" y2="193.611" stroke="#111112" stroke-width="8"/>
<line x1="236.226" y1="212.881" x2="231.817" y2="191.147" stroke="#111112" stroke-width="8"/>
<line y1="-4" x2="22.1771" y2="-4" transform="matrix(0.198798 -0.98004 -0.98004 -0.198798 375.76 217.014)" stroke="#111112" stroke-width="8"/>
<line y1="-4" x2="22.1771" y2="-4" transform="matrix(0.198798 -0.98004 -0.98004 -0.198798 205.736 214.55)" stroke="#111112" stroke-width="8"/>
<path d="M265.278 315.014C268.111 329.681 285.662 360.557 315.278 358.514C344.278 356.514 351.778 339.014 353.778 330.014" stroke="black" stroke-width="8"/>
<path d="M176.778 135.014C198.778 135.014 243.378 131.514 245.778 117.514" stroke="black" stroke-width="8"/>
<path d="M423.278 143.514C401.278 143.514 356.678 140.014 354.278 126.014" stroke="black" stroke-width="8"/>
</svg>
