<svg width="356" height="356" viewBox="0 0 356 356" fill="none" xmlns="http://www.w3.org/2000/svg">
<path d="M178 0L191.231 39.4343L211.687 3.21669L217.216 44.4424L244.156 12.7505L241.783 54.2777L274.234 28.2569L264.045 68.5845L300.834 49.1753L283.197 86.846L322.995 74.7499L298.547 108.402L339.914 104.056L309.54 132.473L350.982 136.035L315.779 158.19L355.798 169.53L317.038 184.623L354.188 203.332L313.272 210.817L346.21 236.218L304.617 235.824L332.153 267L291.386 258.742L312.523 294.565L274.056 278.741L288.032 317.917L253.255 295.099L259.564 336.213L229.734 307.225L228.148 348.79L204.343 314.681L194.92 355.194L178 317.196L161.08 355.194L151.657 314.681L127.852 348.79L126.266 307.225L96.4357 336.213L102.745 295.099L67.9677 317.917L81.9438 278.741L43.4766 294.565L64.6143 258.742L23.8475 267L51.3829 235.824L9.78986 236.218L42.7277 210.817L1.81178 203.332L38.9617 184.623L0.201614 169.53L40.2208 158.19L5.01755 136.035L46.4597 132.473L16.0855 104.056L57.4527 108.402L33.0055 74.7499L72.8027 86.846L55.1659 49.1753L91.9547 68.5845L81.7659 28.2569L114.217 54.2777L111.844 12.7505L138.784 44.4424L144.313 3.21669L164.769 39.4343L178 0Z" fill="#FF9700"/>
<path d="M114 118L168.5 152" stroke="black" stroke-width="3"/>
<path d="M178 152L232.5 118" stroke="black" stroke-width="3"/>
<path d="M154 227.614C161 188.614 198.5 201.614 198.5 227.614" stroke="#111112" stroke-width="3"/>
<path d="M184.951 167.122C184.951 167.122 197.526 159.247 221.456 149.405C247.259 138.793 259.863 136.312 259.863 136.312C259.863 136.312 256.768 161.914 230.965 172.526C205.162 183.138 184.951 167.122 184.951 167.122Z" fill="white"/>
<path d="M96.4364 130.215C96.4364 130.215 110.553 134.784 133.476 146.785C158.193 159.727 168.196 167.786 168.196 167.786C168.196 167.786 146.597 181.875 121.88 168.933C97.1626 155.992 96.4364 130.215 96.4364 130.215Z" fill="white"/>
<path d="M121.938 141.873C123.097 139.659 127.393 143.037 133.265 146.111C139.136 149.185 144.36 150.791 143.2 153.005C140.126 158.877 132.874 161.145 127.003 158.07C121.132 154.996 118.864 147.745 121.938 141.873Z" fill="#111112"/>
<path d="M210.276 155.084C209.325 152.772 214.674 151.653 220.803 149.133C226.933 146.612 231.521 143.643 232.472 145.955C234.993 152.085 232.067 159.097 225.938 161.618C219.809 164.139 212.797 161.213 210.276 155.084Z" fill="#111112"/>
</svg>
