<svg width="536" height="381" viewBox="0 0 536 381" fill="none" xmlns="http://www.w3.org/2000/svg">
<path d="M196.621 52.4488C189.464 38.7789 199.366 22 214.796 22H516C527.046 22 536 30.9543 536 42V358C536 369.046 527.046 378 516 378H167.5C167.5 378 262.239 382.065 275 330C294.089 252.116 228.638 113.596 196.621 52.4488Z" fill="#395C8C"/>
<path d="M301.388 261.5C303.221 278.5 317.337 299.5 364.888 299.5C382.388 299.5 420.888 289 429.388 272" stroke="#111112" stroke-width="3"/>
<path d="M359.806 299.158C360.845 310.61 342.685 315.27 341.053 297.283" stroke="#111112" stroke-width="3"/>
<path d="M361.585 299.158C360.546 310.61 378.706 315.27 380.338 297.283" stroke="#111112" stroke-width="3"/>
<path d="M341.888 140.5C341.888 140.5 327.263 143 301.388 143C273.488 143 260.888 140.5 260.888 140.5C260.888 140.5 273.488 118 301.388 118C329.288 118 341.888 140.5 341.888 140.5Z" fill="white"/>
<path d="M453.888 140.5C453.888 140.5 439.263 143 413.388 143C385.488 143 372.888 140.5 372.888 140.5C372.888 140.5 385.488 118 413.388 118C441.288 118 453.888 140.5 453.888 140.5Z" fill="white"/>
<path d="M471.388 112C437.388 104 436.888 87 423.388 79C385.778 56.7128 368.221 102.333 367.888 112C363.054 121.167 356.288 146.5 367.888 174.5C382.388 209.5 396.888 206.5 382.388 226.5C370.788 242.5 353.554 233.167 346.388 226.5C341.054 227.833 331.988 224.9 338.388 202.5C344.788 180.1 346.388 132.833 346.388 112C320.388 67 300.888 110.8 266.888 112" stroke="#111112" stroke-width="3"/>
<path d="M425.888 142C425.888 144.5 420.515 143.5 413.888 143.5C407.26 143.5 401.888 144.5 401.888 142C401.888 135.373 407.26 130 413.888 130C420.515 130 425.888 135.373 425.888 142Z" fill="#111112"/>
<path d="M313.888 142C313.888 144.5 308.515 143.5 301.888 143.5C295.26 143.5 289.888 144.5 289.888 142C289.888 135.373 295.26 130 301.888 130C308.515 130 313.888 135.373 313.888 142Z" fill="#111112"/>
<path d="M88.6122 29.2425C24.2743 132.789 -22.5864 262.335 11.3812 328.789C45.3487 395.242 262.467 400.731 280 328.789C301.414 240.923 251.832 90.2716 186.112 12.7425C167.093 -9.69389 107.686 -1.45528 88.6122 29.2425Z" fill="#8399B7"/>
<path d="M110.5 176.243C112.5 182.409 121.1 194.543 139.5 193.743" stroke="#111112" stroke-width="3"/>
<path d="M86.5 104.243C96.1667 114.243 118.3 128.243 129.5 104.243" stroke="#111112" stroke-width="3"/>
<path d="M158 104.743C164.5 115.743 179.5 127.243 201 104.743" stroke="#111112" stroke-width="3"/>
<line x1="201.326" y1="117.239" x2="196.712" y2="109.511" stroke="#111112" stroke-width="3"/>
<line x1="132.326" y1="116.239" x2="127.712" y2="108.511" stroke="#111112" stroke-width="3"/>
<line y1="-1.5" x2="9" y2="-1.5" transform="matrix(0.512643 -0.858602 -0.858602 -0.512643 155 117.47)" stroke="#111112" stroke-width="3"/>
<line y1="-1.5" x2="9" y2="-1.5" transform="matrix(0.512643 -0.858602 -0.858602 -0.512643 86 116.47)" stroke="#111112" stroke-width="3"/>
<line x1="194.326" y1="122.239" x2="189.712" y2="114.511" stroke="#111112" stroke-width="3"/>
<line x1="125.326" y1="121.239" x2="120.712" y2="113.511" stroke="#111112" stroke-width="3"/>
<line y1="-1.5" x2="9" y2="-1.5" transform="matrix(0.512643 -0.858602 -0.858602 -0.512643 162 122.47)" stroke="#111112" stroke-width="3"/>
<line y1="-1.5" x2="9" y2="-1.5" transform="matrix(0.512643 -0.858602 -0.858602 -0.512643 93 121.47)" stroke="#111112" stroke-width="3"/>
<line x1="184.319" y1="125.861" x2="182.53" y2="117.041" stroke="#111112" stroke-width="3"/>
<line x1="115.319" y1="124.861" x2="113.53" y2="116.041" stroke="#111112" stroke-width="3"/>
<line y1="-1.5" x2="9" y2="-1.5" transform="matrix(0.198798 -0.98004 -0.98004 -0.198798 171.825 126.563)" stroke="#111112" stroke-width="3"/>
<line y1="-1.5" x2="9" y2="-1.5" transform="matrix(0.198798 -0.98004 -0.98004 -0.198798 102.825 125.563)" stroke="#111112" stroke-width="3"/>
</svg>
