<svg width="378" height="378" viewBox="0 0 378 378" fill="none" xmlns="http://www.w3.org/2000/svg">
<circle cx="189" cy="189" r="189" fill="#20477D"/>
<path d="M138 267C182.8 262.6 191.667 272.833 190.5 278.5" stroke="#111112" stroke-width="3"/>
<path d="M139 155.5C139 155.5 124.375 178 98.5 178C70.6 178 58 155.5 58 155.5C58 155.5 70.6 133 98.5 133C126.4 133 139 155.5 139 155.5Z" fill="white"/>
<path d="M251 155.5C251 155.5 236.375 178 210.5 178C182.6 178 170 155.5 170 155.5C170 155.5 182.6 133 210.5 133C238.4 133 251 155.5 251 155.5Z" fill="white"/>
<circle cx="80" cy="156" r="12" fill="#111112"/>
<circle cx="190" cy="156" r="12" fill="#111112"/>
<path d="M70.5 106C89.6667 101.333 130.5 97.3 140.5 118.5C150.5 139.7 144.667 178.333 140.5 195L134.5 220.5H155.5" stroke="#111112" stroke-width="3"/>
</svg>
