<svg width="303" height="353" viewBox="0 0 303 353" fill="none" xmlns="http://www.w3.org/2000/svg">
<path d="M0 185.155C0 302.122 32.5687 353 137.104 353C412.887 353 260.024 353 260.024 185.155C260.024 17.3092 407.109 -9.65846e-05 157.065 0C14.1832 5.51914e-05 0 108.575 0 185.155Z" fill="#CDD6E2"/>
<path d="M237.5 297C249 299.167 270.9 308.5 266.5 328.5" stroke="#111112" stroke-width="3"/>
<path d="M146 63.5C146 63.5 131.375 86 105.5 86C77.6 86 65 63.5 65 63.5C65 63.5 77.6 41 105.5 41C133.4 41 146 63.5 146 63.5Z" fill="white"/>
<path d="M258 63.5C258 63.5 243.375 86 217.5 86C189.6 86 177 63.5 177 63.5C177 63.5 189.6 41 217.5 41C245.4 41 258 63.5 258 63.5Z" fill="white"/>
<circle cx="224" cy="67" r="12" fill="#111112"/>
<circle cx="118" cy="67" r="12" fill="#111112"/>
<path d="M171 50.5C162.333 75.6667 154.5 131.8 192.5 155C230.5 178.2 189.333 176.333 164 172.5V208.5C166.333 203.667 171 198.9 171 218.5C171 238.1 166.333 231.667 164 226" stroke="#111112" stroke-width="3"/>
</svg>
