<svg width="24" height="25" viewBox="0 0 24 25" fill="none" xmlns="http://www.w3.org/2000/svg">
<path fill-rule="evenodd" clip-rule="evenodd" d="M19.4229 5.39495C20.2409 5.64816 20.8838 6.39153 21.1027 7.33747C21.4984 9.05027 21.5 12.626 21.5 12.626C21.5 12.626 21.5 16.2018 21.1027 17.9146C20.8838 18.8605 20.2409 19.6039 19.4229 19.8571C17.9418 20.3165 12 20.3165 12 20.3165C12 20.3165 6.05819 20.3165 4.57704 19.8571C3.75906 19.6039 3.11623 18.8605 2.89727 17.9146C2.5 16.2018 2.5 12.626 2.5 12.626C2.5 12.626 2.5 9.05027 2.89727 7.33747C3.11623 6.39153 3.75906 5.64816 4.57704 5.39495C6.05819 4.93555 12 4.93555 12 4.93555C12 4.93555 17.9418 4.93555 19.4229 5.39495ZM15.1788 12.6263L10.0076 15.6117V9.6409L15.1788 12.6263Z" fill="#111112"/>
</svg>
